<mxfile host="app.diagrams.net" agent="Mozilla/5.0 (Windows NT 10.0; Win64; x64) AppleWebKit/537.36 (KHTML, like Gecko) Chrome/129.0.0.0 Safari/537.36 Edg/129.0.0.0" version="24.7.16">
  <diagram name="Страница — 1" id="gdvKzgo20cAP0bYkbbMA">
    <mxGraphModel dx="1188" dy="659" grid="1" gridSize="10" guides="1" tooltips="1" connect="1" arrows="1" fold="1" page="1" pageScale="1" pageWidth="827" pageHeight="1169" math="0" shadow="0">
      <root>
        <mxCell id="0" />
        <mxCell id="1" parent="0" />
        <mxCell id="46xdVyQUeZA68xKv5Dmh-3" style="edgeStyle=orthogonalEdgeStyle;rounded=0;orthogonalLoop=1;jettySize=auto;html=1;entryX=0.5;entryY=0;entryDx=0;entryDy=0;" edge="1" parent="1" source="46xdVyQUeZA68xKv5Dmh-1" target="46xdVyQUeZA68xKv5Dmh-2">
          <mxGeometry relative="1" as="geometry" />
        </mxCell>
        <mxCell id="46xdVyQUeZA68xKv5Dmh-1" value="Начало" style="ellipse;whiteSpace=wrap;html=1;" vertex="1" parent="1">
          <mxGeometry x="331" y="50" width="166" height="40" as="geometry" />
        </mxCell>
        <mxCell id="46xdVyQUeZA68xKv5Dmh-4" style="edgeStyle=orthogonalEdgeStyle;rounded=0;orthogonalLoop=1;jettySize=auto;html=1;exitX=0.5;exitY=1;exitDx=0;exitDy=0;" edge="1" parent="1" source="46xdVyQUeZA68xKv5Dmh-2">
          <mxGeometry relative="1" as="geometry">
            <mxPoint x="414" y="230" as="targetPoint" />
          </mxGeometry>
        </mxCell>
        <mxCell id="46xdVyQUeZA68xKv5Dmh-2" value="Ввод x" style="shape=parallelogram;perimeter=parallelogramPerimeter;whiteSpace=wrap;html=1;fixedSize=1;" vertex="1" parent="1">
          <mxGeometry x="354" y="130" width="120" height="60" as="geometry" />
        </mxCell>
        <mxCell id="46xdVyQUeZA68xKv5Dmh-6" style="edgeStyle=orthogonalEdgeStyle;rounded=0;orthogonalLoop=1;jettySize=auto;html=1;" edge="1" parent="1" source="46xdVyQUeZA68xKv5Dmh-5">
          <mxGeometry relative="1" as="geometry">
            <mxPoint x="414" y="410" as="targetPoint" />
          </mxGeometry>
        </mxCell>
        <mxCell id="46xdVyQUeZA68xKv5Dmh-9" value="ДА" style="edgeLabel;html=1;align=center;verticalAlign=middle;resizable=0;points=[];" vertex="1" connectable="0" parent="46xdVyQUeZA68xKv5Dmh-6">
          <mxGeometry x="-0.2872" y="-2" relative="1" as="geometry">
            <mxPoint as="offset" />
          </mxGeometry>
        </mxCell>
        <mxCell id="46xdVyQUeZA68xKv5Dmh-10" style="edgeStyle=orthogonalEdgeStyle;rounded=0;orthogonalLoop=1;jettySize=auto;html=1;" edge="1" parent="1" source="46xdVyQUeZA68xKv5Dmh-5">
          <mxGeometry relative="1" as="geometry">
            <mxPoint x="560" y="610" as="targetPoint" />
          </mxGeometry>
        </mxCell>
        <mxCell id="46xdVyQUeZA68xKv5Dmh-41" value="НЕТ" style="edgeLabel;html=1;align=center;verticalAlign=middle;resizable=0;points=[];" vertex="1" connectable="0" parent="46xdVyQUeZA68xKv5Dmh-10">
          <mxGeometry x="-0.8335" y="2" relative="1" as="geometry">
            <mxPoint x="1" as="offset" />
          </mxGeometry>
        </mxCell>
        <mxCell id="46xdVyQUeZA68xKv5Dmh-5" value="int i &amp;lt;=6" style="rhombus;whiteSpace=wrap;html=1;" vertex="1" parent="1">
          <mxGeometry x="337" y="230" width="154" height="130" as="geometry" />
        </mxCell>
        <mxCell id="46xdVyQUeZA68xKv5Dmh-12" style="edgeStyle=orthogonalEdgeStyle;rounded=0;orthogonalLoop=1;jettySize=auto;html=1;" edge="1" parent="1" source="46xdVyQUeZA68xKv5Dmh-8">
          <mxGeometry relative="1" as="geometry">
            <mxPoint x="414" y="520" as="targetPoint" />
          </mxGeometry>
        </mxCell>
        <mxCell id="46xdVyQUeZA68xKv5Dmh-8" value="x - pow(x,2)" style="rounded=1;whiteSpace=wrap;html=1;" vertex="1" parent="1">
          <mxGeometry x="354" y="410" width="120" height="60" as="geometry" />
        </mxCell>
        <mxCell id="46xdVyQUeZA68xKv5Dmh-13" value="" style="rounded=1;whiteSpace=wrap;html=1;" vertex="1" parent="1">
          <mxGeometry x="360" y="520" width="120" height="60" as="geometry" />
        </mxCell>
        <mxCell id="46xdVyQUeZA68xKv5Dmh-14" value="res2*= (x - pow(x, 2))" style="rounded=0;whiteSpace=wrap;html=1;" vertex="1" parent="1">
          <mxGeometry x="354" y="410" width="120" height="60" as="geometry" />
        </mxCell>
        <mxCell id="46xdVyQUeZA68xKv5Dmh-16" style="edgeStyle=orthogonalEdgeStyle;rounded=0;orthogonalLoop=1;jettySize=auto;html=1;entryX=0;entryY=0.5;entryDx=0;entryDy=0;" edge="1" parent="1" source="46xdVyQUeZA68xKv5Dmh-15" target="46xdVyQUeZA68xKv5Dmh-5">
          <mxGeometry relative="1" as="geometry">
            <mxPoint x="260" y="290" as="targetPoint" />
            <Array as="points">
              <mxPoint x="310" y="550" />
              <mxPoint x="310" y="295" />
            </Array>
          </mxGeometry>
        </mxCell>
        <mxCell id="46xdVyQUeZA68xKv5Dmh-15" value="i++" style="rounded=0;whiteSpace=wrap;html=1;" vertex="1" parent="1">
          <mxGeometry x="360" y="520" width="120" height="60" as="geometry" />
        </mxCell>
        <mxCell id="46xdVyQUeZA68xKv5Dmh-19" value="" style="endArrow=classic;html=1;rounded=0;entryX=0.5;entryY=0;entryDx=0;entryDy=0;" edge="1" parent="1" target="46xdVyQUeZA68xKv5Dmh-24">
          <mxGeometry width="50" height="50" relative="1" as="geometry">
            <mxPoint x="560" y="610" as="sourcePoint" />
            <mxPoint x="420" y="610" as="targetPoint" />
            <Array as="points">
              <mxPoint x="420" y="610" />
            </Array>
          </mxGeometry>
        </mxCell>
        <mxCell id="46xdVyQUeZA68xKv5Dmh-20" value="" style="endArrow=classic;html=1;rounded=0;" edge="1" parent="1">
          <mxGeometry width="50" height="50" relative="1" as="geometry">
            <mxPoint x="419.41" y="610" as="sourcePoint" />
            <mxPoint x="419.91" y="670" as="targetPoint" />
          </mxGeometry>
        </mxCell>
        <mxCell id="46xdVyQUeZA68xKv5Dmh-22" style="edgeStyle=orthogonalEdgeStyle;rounded=0;orthogonalLoop=1;jettySize=auto;html=1;exitX=0.5;exitY=1;exitDx=0;exitDy=0;entryX=0.5;entryY=0;entryDx=0;entryDy=0;" edge="1" parent="1" source="46xdVyQUeZA68xKv5Dmh-21" target="46xdVyQUeZA68xKv5Dmh-23">
          <mxGeometry relative="1" as="geometry">
            <mxPoint x="414" y="1100" as="targetPoint" />
          </mxGeometry>
        </mxCell>
        <mxCell id="46xdVyQUeZA68xKv5Dmh-21" value="res1/res2" style="rounded=1;whiteSpace=wrap;html=1;" vertex="1" parent="1">
          <mxGeometry x="354" y="1000" width="120" height="60" as="geometry" />
        </mxCell>
        <mxCell id="46xdVyQUeZA68xKv5Dmh-23" value="Конец" style="ellipse;whiteSpace=wrap;html=1;" vertex="1" parent="1">
          <mxGeometry x="334" y="1104.17" width="160" height="40" as="geometry" />
        </mxCell>
        <mxCell id="46xdVyQUeZA68xKv5Dmh-25" style="edgeStyle=orthogonalEdgeStyle;rounded=0;orthogonalLoop=1;jettySize=auto;html=1;" edge="1" parent="1" source="46xdVyQUeZA68xKv5Dmh-24">
          <mxGeometry relative="1" as="geometry">
            <mxPoint x="560" y="970" as="targetPoint" />
          </mxGeometry>
        </mxCell>
        <mxCell id="46xdVyQUeZA68xKv5Dmh-40" value="НЕТ" style="edgeLabel;html=1;align=center;verticalAlign=middle;resizable=0;points=[];" vertex="1" connectable="0" parent="46xdVyQUeZA68xKv5Dmh-25">
          <mxGeometry x="-0.8707" y="-1" relative="1" as="geometry">
            <mxPoint x="-1" as="offset" />
          </mxGeometry>
        </mxCell>
        <mxCell id="46xdVyQUeZA68xKv5Dmh-36" style="edgeStyle=orthogonalEdgeStyle;rounded=0;orthogonalLoop=1;jettySize=auto;html=1;exitX=0.5;exitY=1;exitDx=0;exitDy=0;entryX=0.5;entryY=0;entryDx=0;entryDy=0;" edge="1" parent="1" source="46xdVyQUeZA68xKv5Dmh-24" target="46xdVyQUeZA68xKv5Dmh-31">
          <mxGeometry relative="1" as="geometry" />
        </mxCell>
        <mxCell id="46xdVyQUeZA68xKv5Dmh-42" value="ДА" style="edgeLabel;html=1;align=center;verticalAlign=middle;resizable=0;points=[];" vertex="1" connectable="0" parent="46xdVyQUeZA68xKv5Dmh-36">
          <mxGeometry x="-0.4286" y="3" relative="1" as="geometry">
            <mxPoint as="offset" />
          </mxGeometry>
        </mxCell>
        <mxCell id="46xdVyQUeZA68xKv5Dmh-24" value="int o&amp;lt;=63" style="rhombus;whiteSpace=wrap;html=1;" vertex="1" parent="1">
          <mxGeometry x="340" y="670" width="155" height="110" as="geometry" />
        </mxCell>
        <mxCell id="46xdVyQUeZA68xKv5Dmh-27" value="" style="endArrow=classic;html=1;rounded=0;entryX=0.5;entryY=0;entryDx=0;entryDy=0;" edge="1" parent="1" target="46xdVyQUeZA68xKv5Dmh-21">
          <mxGeometry width="50" height="50" relative="1" as="geometry">
            <mxPoint x="560" y="970" as="sourcePoint" />
            <mxPoint x="414" y="1004.1700000000001" as="targetPoint" />
            <Array as="points">
              <mxPoint x="504" y="970" />
              <mxPoint x="414" y="970" />
            </Array>
          </mxGeometry>
        </mxCell>
        <mxCell id="46xdVyQUeZA68xKv5Dmh-38" style="edgeStyle=orthogonalEdgeStyle;rounded=0;orthogonalLoop=1;jettySize=auto;html=1;exitX=0;exitY=0.5;exitDx=0;exitDy=0;" edge="1" parent="1" source="46xdVyQUeZA68xKv5Dmh-30">
          <mxGeometry relative="1" as="geometry">
            <mxPoint x="300" y="924" as="targetPoint" />
            <Array as="points">
              <mxPoint x="300" y="930" />
            </Array>
          </mxGeometry>
        </mxCell>
        <mxCell id="46xdVyQUeZA68xKv5Dmh-30" value="o+=2" style="rounded=0;whiteSpace=wrap;html=1;" vertex="1" parent="1">
          <mxGeometry x="357.5" y="900" width="120" height="60" as="geometry" />
        </mxCell>
        <mxCell id="46xdVyQUeZA68xKv5Dmh-37" style="edgeStyle=orthogonalEdgeStyle;rounded=0;orthogonalLoop=1;jettySize=auto;html=1;exitX=0.5;exitY=1;exitDx=0;exitDy=0;entryX=0.5;entryY=0;entryDx=0;entryDy=0;" edge="1" parent="1" source="46xdVyQUeZA68xKv5Dmh-31" target="46xdVyQUeZA68xKv5Dmh-30">
          <mxGeometry relative="1" as="geometry" />
        </mxCell>
        <mxCell id="46xdVyQUeZA68xKv5Dmh-31" value="res1*=(x-o)" style="rounded=0;whiteSpace=wrap;html=1;" vertex="1" parent="1">
          <mxGeometry x="357.5" y="814.17" width="120" height="60" as="geometry" />
        </mxCell>
        <mxCell id="46xdVyQUeZA68xKv5Dmh-39" value="" style="endArrow=classic;html=1;rounded=0;entryX=0;entryY=0.5;entryDx=0;entryDy=0;" edge="1" parent="1" target="46xdVyQUeZA68xKv5Dmh-24">
          <mxGeometry width="50" height="50" relative="1" as="geometry">
            <mxPoint x="300" y="930" as="sourcePoint" />
            <mxPoint x="460" y="710" as="targetPoint" />
            <Array as="points">
              <mxPoint x="300" y="725" />
            </Array>
          </mxGeometry>
        </mxCell>
      </root>
    </mxGraphModel>
  </diagram>
</mxfile>
